PathFileType	4	(X/Y/Z)	C:\Users\ebm\Documents\Erivelton\Erivelton2\wc9.trc
DataRate	CameraRate	NumFrames	NumMarkers	Units	OrigDataRate	OrigDataStartFrame	OrigNumFrames
150.00	150.00	      6	28	mm	150.00	485	      1293
Frame#	Time	IJ			PX			C7			T8			RAC			RAS			RPS			RAI			RPI			RLE			RME			RRS			RUS			R3M			R5M			LAC			LAS			LPS			LAI			LPI			LLE			LME			LRS			LUS			L3M			L5M			RW			LW			V_mid_elbow_r			V_mid_elbow_l			V_mid_wrist_r			V_mid_wrist_l			V_mid_trunk_low			V_mid_trunk_upp			
		X1	Y1	Z1	X2	Y2	Z2	X3	Y3	Z3	X4	Y4	Z4	X5	Y5	Z5	X6	Y6	Z6	X7	Y7	Z7	X8	Y8	Z8	X9	Y9	Z9	X10	Y10	Z10	X11	Y11	Z11	X12	Y12	Z12	X13	Y13	Z13	X14	Y14	Z14	X15	Y15	Z15	X16	Y16	Z16	X17	Y17	Z17	X18	Y18	Z18	X19	Y19	Z19	X20	Y20	Z20	X21	Y21	Z21	X22	Y22	Z22	X23	Y23	Z23	X24	Y24	Z24	X25	Y25	Z25	X26	Y26	Z26	X27	Y27	Z27	X28	Y28	Z28	

485	3.227							-934.72034	1134.47632	24.31479				-856.90900	1080.73523	232.59735	-772.27203	898.17664	267.56854	-818.24902	889.14606	295.65265	-743.60052	829.50348	282.42212	-786.78400	815.66925	310.66730	-746.85193	757.06567	307.36374				-555.34338	739.99329	103.03799	-541.97223	717.78302	160.56807	-471.60754	710.40369	108.43719	-480.46643	691.40778	142.26437	-898.75317	1063.08594	-157.64896	-846.85309	900.65314	-224.98244	-883.61285	873.82739	-220.13152	-804.79883	833.21985	-237.95963	-851.10681	803.44055	-235.95294	-769.92993	747.62366	-246.43939	-810.20099	713.05267	-191.51561	-548.44183	727.78772	-92.24091	-537.01221	695.76733	-148.85463	-462.83820	694.01001	-117.14230	-486.37302	674.91913	-147.77870	-869.54858	297.69797	361.57452	-862.78241	298.75903	-266.52151	
486	3.233							-927.09869	1134.24463	24.48845				-848.98846	1080.44812	232.79370	-764.02173	898.20148	267.59595	-809.98785	889.08221	295.61490	-734.97894	829.61755	282.22882	-778.36523	815.73016	310.78616	-738.18933	757.14838	307.29044				-546.92566	739.91937	102.78694	-533.34613	717.92505	160.47163	-463.19672	710.31970	107.96632	-471.81802	691.65204	142.08455	-891.11371	1062.88892	-157.48015	-838.77954	900.55414	-224.74834	-875.36310	873.49884	-219.87993	-796.73383	833.28656	-237.68137	-842.81604	803.36578	-235.63875	-760.96564	747.37244	-245.53548	-801.67822	713.03589	-191.25912	-539.91156	727.92010	-92.00950	-528.62286	695.98645	-148.67728	-454.34671	694.19012	-116.80845	-477.87708	675.13458	-147.53564	-861.13849	297.57394	362.00061	-854.17145	298.73245	-266.45078	
487	3.240							-919.47278	1134.01855	24.68067				-841.39636	1080.33008	232.95830	-755.86493	898.19159	267.61099	-801.65771	889.07953	295.64301	-726.53448	829.68835	282.22656	-769.87726	815.75537	310.79440	-729.32947	757.17963	307.05740				-538.51801	739.73987	102.56667	-524.88019	718.07709	160.22137	-454.86810	710.54126	107.51368	-463.14737	691.91846	141.78673	-883.54095	1062.72693	-157.35280	-830.80017	900.47809	-224.55394	-867.11578	873.19995	-219.65904	-788.30481	833.24908	-237.41502	-834.49811	803.29004	-235.45511	-752.60370	747.48132	-245.26094	-793.26251	713.14728	-191.07338	-531.72833	727.84607	-91.92625	-520.07440	696.17987	-148.29860	-445.83047	694.34515	-116.49156	-469.37943	675.37909	-147.26067	-852.55316	297.71191	361.67084	-845.58014	298.71524	-266.38501	
488	3.247							-911.90503	1133.83740	24.84776				-833.45416	1080.03662	233.14046	-747.50952	898.12695	267.54007	-793.31134	888.89050	295.94144	-718.08453	829.76050	282.12390	-761.32123	815.70599	310.84085	-720.75726	757.28839	307.06967	-768.29291	726.80316	246.96852	-530.18549	739.56348	102.23284	-516.20721	718.15399	160.01897	-446.22870	710.64490	107.28050	-454.52954	692.19379	141.68452	-875.84845	1062.54456	-157.15117	-822.60278	900.34949	-224.33934	-858.83099	872.95056	-219.46678	-780.06549	833.28729	-237.17238	-826.14764	803.14813	-235.16728	-744.15137	747.59149	-244.95648	-784.72540	713.14099	-190.78043	-523.39856	727.92236	-91.64926	-511.56680	696.26514	-148.01514	-437.46188	694.44171	-116.22431	-460.96222	675.58191	-147.07285	-844.13843	297.68063	362.01349	-836.97144	298.67654	-266.33768	
489	3.253							-904.25159	1133.62573	25.03312				-825.92340	1079.97839	233.34602	-739.33862	898.16071	267.58353	-784.98260	888.78027	295.89993	-709.67230	829.84296	282.08606	-752.80920	815.70544	311.07751	-712.05756	757.27527	306.96063				-521.82495	739.39130	101.96324	-507.73267	718.24365	159.76611	-437.79108	710.82324	106.89268	-445.87750	692.51355	141.31947	-868.15198	1062.43994	-156.96164	-814.53418	900.28265	-224.15036	-850.57434	872.69696	-219.23729	-771.94073	833.29492	-236.90997	-817.85687	803.16089	-234.95493	-736.27545	748.05353	-245.32066	-776.36548	713.24634	-190.55289	-514.95691	727.99872	-91.44691	-503.15829	696.44019	-147.77820	-428.95337	694.54150	-116.01763	-452.42245	675.55768	-146.78424	-835.70050	297.73068	362.09613	-828.46423	298.65738	-266.31494	
490	3.260							-896.55121	1133.43469	25.17913				-817.94714	1079.73999	233.45015	-735.32031	899.11121	269.33908	-776.90845	888.73218	295.93173	-701.32306	829.87415	281.97949	-744.27283	815.64911	310.93582	-703.75195	757.43781	307.17160				-513.42920	739.17053	101.60844	-499.22278	718.39288	159.58200	-429.29315	710.95728	106.38535	-437.23785	692.75885	141.01649	-860.39001	1062.28125	-156.80046	-806.41528	900.22308	-223.86584	-842.29022	872.51038	-219.00873	-763.59186	833.34894	-236.65512	-809.52802	803.05774	-234.68896	-727.85638	748.19025	-245.03073	-767.84564	713.24823	-190.26791	-506.40314	728.01068	-91.23291	-494.72391	696.53693	-147.60368	-420.52060	694.60388	-115.79670	-443.93616	675.67212	-146.67683	-827.18829	297.97412	361.89117	-819.83252	298.59296	-266.26282	
